<svg width="55" height="55" viewBox="0 0 55 55" fill="none" xmlns="http://www.w3.org/2000/svg">
<path d="M48.125 48.9844H6.875C6.64708 48.9844 6.42849 48.8938 6.26733 48.7327C6.10617 48.5715 6.01562 48.3529 6.01562 48.125V6.875C6.01562 6.64708 6.10617 6.42849 6.26733 6.26733C6.42849 6.10617 6.64708 6.01562 6.875 6.01562H48.125C48.3529 6.01562 48.5715 6.10617 48.7327 6.26733C48.8938 6.42849 48.9844 6.64708 48.9844 6.875V48.125C48.9844 48.3529 48.8938 48.5715 48.7327 48.7327C48.5715 48.8938 48.3529 48.9844 48.125 48.9844ZM7.73438 47.2656H47.2656V7.73438H7.73438V47.2656Z" fill="black"/>
<path d="M37.8125 28.3594H17.1875C16.9596 28.3594 16.741 28.2688 16.5798 28.1077C16.4187 27.9465 16.3281 27.7279 16.3281 27.5C16.3281 27.2721 16.4187 27.0535 16.5798 26.8923C16.741 26.7312 16.9596 26.6406 17.1875 26.6406H37.8125C38.0404 26.6406 38.259 26.7312 38.4202 26.8923C38.5813 27.0535 38.6719 27.2721 38.6719 27.5C38.6719 27.7279 38.5813 27.9465 38.4202 28.1077C38.259 28.2688 38.0404 28.3594 37.8125 28.3594Z" fill="black"/>
<path d="M27.5 38.6719C27.2721 38.6719 27.0535 38.5813 26.8923 38.4202C26.7312 38.259 26.6406 38.0404 26.6406 37.8125V17.1875C26.6406 16.9596 26.7312 16.741 26.8923 16.5798C27.0535 16.4187 27.2721 16.3281 27.5 16.3281C27.7279 16.3281 27.9465 16.4187 28.1077 16.5798C28.2688 16.741 28.3594 16.9596 28.3594 17.1875V37.8125C28.3594 38.0404 28.2688 38.259 28.1077 38.4202C27.9465 38.5813 27.7279 38.6719 27.5 38.6719Z" fill="black"/>
</svg>

