<svg width="40" height="50" viewBox="0 0 40 50" fill="none" xmlns="http://www.w3.org/2000/svg">
<path d="M36.1905 6.25H27.619V4.16667C27.619 1.875 25.9048 0 23.8095 0H16.1905C14.0952 0 12.381 1.875 12.381 4.16667V6.25H3.80952C1.71429 6.25 0 8.125 0 10.4167V14.5833H0.952381C3.42857 14.5833 3.80952 16.5625 3.80952 16.7708L7.14286 44.8958C7.42857 47.7083 9.80952 50 12.381 50H27.619C30.1905 50 32.4762 47.7083 32.8571 45L36.1905 16.875C36.1905 16.7708 36.5714 14.6875 39.0476 14.5833H40V10.4167C40 8.125 38.2857 6.25 36.1905 6.25ZM14.2857 4.16667C14.2857 3.02083 15.1429 2.08333 16.1905 2.08333H23.8095C24.8571 2.08333 25.7143 3.02083 25.7143 4.16667V6.25H23.8095V5.72917C23.8095 4.89583 23.1429 4.16667 22.381 4.16667H17.619C16.8571 4.16667 16.1905 4.89583 16.1905 5.72917V6.25H14.2857V4.16667ZM1.90476 10.4167C1.90476 9.27083 2.7619 8.33333 3.80952 8.33333H36.1905C37.2381 8.33333 38.0952 9.27083 38.0952 10.4167V12.5H1.90476V10.4167ZM34.2857 16.5625L30.9524 44.6875C30.7619 46.4583 29.2381 47.9167 27.619 47.9167H12.381C10.7619 47.9167 9.2381 46.4583 9.04762 44.6875L5.71429 16.4583C5.61905 15.9375 5.42857 15.2083 4.95238 14.5833H35.0476C34.5714 15.3125 34.381 16.0417 34.2857 16.5625Z" fill="#303033"/>
<path d="M21.9047 21.875H18.0952V40.625H21.9047V21.875Z" fill="#7D50F9"/>
<path d="M25.7144 21.875H29.5239L27.6191 40.625H25.7144V21.875Z" fill="#7D50F9"/>
<path d="M10.4761 21.875H14.2856V40.625H12.3808L10.4761 21.875Z" fill="#7D50F9"/>
</svg>
