<svg width="75" height="75" viewBox="0 0 75 75" fill="none" xmlns="http://www.w3.org/2000/svg">
<path d="M64.5833 62.5H22.9167C17.1646 62.5 12.5 57.8354 12.5 52.0833V10.4167C12.5 4.66458 17.1646 0 22.9167 0H64.5833C70.3354 0 75 4.66458 75 10.4167V52.0833C75 57.8354 70.3354 62.5 64.5833 62.5ZM31.25 50H60.4167V26.0417C60.4167 19.7125 55.2875 14.5833 48.9583 14.5833H25V43.75C25 47.2021 27.7979 50 31.25 50Z" fill="#64B5F6"/>
<path d="M52.0833 75H10.4167C4.66458 75 0 70.3354 0 64.5833V22.9167C0 17.1646 4.66458 12.5 10.4167 12.5H52.0833C57.8354 12.5 62.5 17.1646 62.5 22.9167V64.5833C62.5 70.3354 57.8354 75 52.0833 75ZM23.9583 62.5H50V31.25C50 27.7979 47.2021 25 43.75 25H18.75C15.2979 25 12.5 27.7979 12.5 31.25V51.0417C12.5 57.3708 17.6292 62.5 23.9583 62.5Z" fill="#FB8C00"/>
<path d="M62.5 41.6667V43.75C62.5 47.2021 59.7021 50 56.25 50H35.4167V62.5H64.5834C70.3125 62.5 75 57.8125 75 52.0833V41.6667H62.5Z" fill="#64B5F6"/>
<path d="M64.5833 62.5H22.9167C17.1646 62.5 12.5 57.8354 12.5 52.0833V10.4167C12.5 4.66458 17.1646 0 22.9167 0H64.5833C70.3354 0 75 4.66458 75 10.4167V52.0833C75 57.8354 70.3354 62.5 64.5833 62.5ZM31.25 50H60.4167V26.0417C60.4167 19.7125 55.2875 14.5833 48.9583 14.5833H25V43.75C25 47.2021 27.7979 50 31.25 50Z" fill="#64B5F6"/>
<path d="M52.0833 75H10.4167C4.66458 75 0 70.3354 0 64.5833V22.9167C0 17.1646 4.66458 12.5 10.4167 12.5H52.0833C57.8354 12.5 62.5 17.1646 62.5 22.9167V64.5833C62.5 70.3354 57.8354 75 52.0833 75ZM23.9583 62.5H50V31.25C50 27.7979 47.2021 25 43.75 25H18.75C15.2979 25 12.5 27.7979 12.5 31.25V51.0417C12.5 57.3708 17.6292 62.5 23.9583 62.5Z" fill="#FB8C00"/>
<path d="M62.5 41.6667V43.75C62.5 47.2021 59.7021 50 56.25 50H35.4167V62.5H64.5834C70.3125 62.5 75 57.8125 75 52.0833V41.6667H62.5Z" fill="#64B5F6"/>
</svg>
